<svg width="150" height="150" viewBox="0 0 150 150" fill="none" xmlns="http://www.w3.org/2000/svg">
<path d="M51.5625 126.562C54.1513 126.562 56.25 124.464 56.25 121.875C56.25 119.286 54.1513 117.188 51.5625 117.188C48.9737 117.188 46.875 119.286 46.875 121.875C46.875 124.464 48.9737 126.562 51.5625 126.562Z" stroke="white" stroke-width="9.375" stroke-linecap="round" stroke-linejoin="round"/>
<path d="M117.188 126.562C119.776 126.562 121.875 124.464 121.875 121.875C121.875 119.286 119.776 117.188 117.188 117.188C114.599 117.188 112.5 119.286 112.5 121.875C112.5 124.464 114.599 126.562 117.188 126.562Z" stroke="white" stroke-width="9.375" stroke-linecap="round" stroke-linejoin="round"/>
<path d="M14.0625 23.4375H32.8125L46.875 103.125H121.875" stroke="white" stroke-width="9.375" stroke-linecap="round" stroke-linejoin="round"/>
<path d="M46.875 84.375H119.953C120.495 84.3754 121.021 84.1879 121.44 83.8444C121.859 83.5009 122.147 83.0227 122.253 82.4912L130.69 40.3037C130.759 39.9635 130.75 39.6125 130.666 39.2759C130.582 38.9393 130.424 38.6256 130.204 38.3573C129.984 38.0891 129.708 37.8731 129.394 37.7248C129.08 37.5765 128.738 37.4998 128.391 37.5H37.5" stroke="white" stroke-width="9.375" stroke-linecap="round" stroke-linejoin="round"/>
</svg>
