<svg width="796" height="255" viewBox="0 0 796 255" fill="none" xmlns="http://www.w3.org/2000/svg">
<path d="M334.537 134.082V121.906H350.851C357.173 121.906 360.295 119.564 360.295 114.803C360.295 112.149 358.968 109.963 356.236 108.246C353.504 106.529 349.758 105.748 344.84 105.748C334.459 105.748 327.903 109.027 325.171 115.583L309.56 111.68C314.321 99.8942 326.185 93.962 345.153 93.962C366.305 93.962 376.921 100.128 376.921 112.539C376.921 119.876 372.862 124.481 364.666 126.277C369.35 127.369 372.862 129.243 375.126 131.819C377.389 134.394 378.56 137.985 378.56 142.668C378.56 157.03 367.008 164.211 343.982 164.211C334.147 164.211 326.419 162.65 320.8 159.45C315.18 156.25 310.731 151.644 307.53 145.556L322.595 141.731C324.78 145.712 327.668 148.444 331.181 149.849C334.693 151.254 339.22 152.035 344.606 152.035C349.992 152.035 354.363 151.176 357.641 149.381C360.92 147.586 362.481 145.088 362.481 141.81C362.481 136.658 358.344 134.16 350.148 134.16H334.537V134.082Z" fill="black"/>
<path d="M464.654 162.104H446.077L440.457 149.615H406.582L400.962 162.104H382.853L414.777 95.9915H432.652L464.576 162.104H464.654ZM435.15 137.907L423.598 112.071L411.889 137.907H435.15Z" fill="black"/>
<path d="M471.913 95.9915H514.843C517.341 95.9915 519.37 95.9915 521.01 96.1476C522.649 96.3037 524.756 96.7721 527.254 97.6307C529.83 98.4893 531.859 99.7381 533.342 101.455C535.84 104.265 537.089 107.856 537.089 112.227C537.089 119.252 533.42 123.935 526.161 126.277C535.684 128.462 540.445 134.004 540.523 142.98C540.523 147.586 539.587 151.332 537.635 154.142C536.386 156.016 534.981 157.577 533.342 158.747C531.781 159.918 529.908 160.777 527.8 161.245C525.693 161.713 523.976 162.026 522.727 162.104C521.4 162.182 519.605 162.26 517.419 162.26H471.991V96.1476L471.913 95.9915ZM488.305 121.906H513.204C518.512 121.906 521.166 119.486 521.166 114.568C521.166 109.729 518.512 107.387 513.282 107.387H488.305V121.906ZM488.305 150.474H514.141C520.697 150.474 523.976 147.508 523.976 141.497C523.976 136.112 521.01 133.458 515.156 133.458H488.305V150.474Z" fill="black"/>
<path d="M548.875 129.009C548.875 122.842 549.968 117.379 552.231 112.773C554.495 108.09 557.539 104.5 561.364 101.846C565.188 99.1918 569.482 97.2405 574.087 95.9135C578.77 94.5866 583.687 93.9622 588.995 93.9622C594.303 93.9622 599.454 94.5866 604.138 95.7574C608.821 96.9282 613.114 98.8016 617.095 101.377C621.076 103.953 624.198 107.544 626.539 112.149C628.881 116.754 629.974 122.218 629.974 128.462C629.974 139.546 626.461 148.366 619.436 154.767C612.412 161.167 602.499 164.367 589.62 164.367C576.741 164.367 566.75 161.167 559.569 154.845C552.388 148.444 548.875 139.936 548.875 129.165V129.009ZM565.891 129.477C565.891 132.287 566.359 135.019 567.218 137.595C568.077 140.17 569.403 142.59 571.199 144.932C572.994 147.195 575.414 148.991 578.614 150.396C581.814 151.801 585.405 152.425 589.463 152.425C593.522 152.425 597.191 151.723 600.235 150.396C603.279 149.069 605.621 147.43 607.182 145.634C608.743 143.761 610.07 141.654 611.007 139.312C611.943 136.97 612.568 135.019 612.802 133.458C613.036 131.897 613.114 130.492 613.114 129.165C613.114 122.764 611.007 117.3 606.87 112.695C602.733 108.09 596.879 105.826 589.385 105.826C581.892 105.826 575.96 108.168 571.901 112.929C567.842 117.613 565.891 123.155 565.891 129.555V129.477Z" fill="black"/>
<path d="M713.57 149.927H722V176.154H706.233V162.104H651.361V176.154H635.594V149.927C640.511 149.927 644.18 146.649 646.521 140.17C648.863 133.614 650.034 123.311 650.034 109.105V95.9915H713.57V149.927ZM665.801 108.168V113.866C665.801 123.935 665.02 131.897 663.537 137.829C662.054 143.761 660.103 147.82 657.839 149.927H697.023V108.168H665.801Z" fill="black"/>
<path fill-rule="evenodd" clip-rule="evenodd" d="M243.939 73.1992H127.897C97.5781 73.1992 73 97.7773 73 128.096C73 158.415 97.5782 182.993 127.897 182.993H243.939C274.257 182.993 298.836 158.415 298.836 128.096C298.836 97.7773 274.257 73.1992 243.939 73.1992ZM183.472 162.104H167.002V133.692H127.038V162.104H110.49V95.9914H127.038V121.437H166.924V95.9914H183.472V162.104ZM198.302 162.104H261.838V150.317H214.928V134.55H258.482V122.764H214.928V107.856H259.965V95.9914H198.302V162.104Z" fill="black"/>
</svg>
